<?xml version="1.0" standalone="no"?>
<!DOCTYPE svg PUBLIC "-//W3C//DTD SVG 20010904//EN"
 "http://www.w3.org/TR/2001/REC-SVG-20010904/DTD/svg10.dtd">
<svg version="1.0" xmlns="http://www.w3.org/2000/svg"
 width="260.000000pt" height="260.000000pt" viewBox="0 0 260.000000 260.000000"
 preserveAspectRatio="xMidYMid meet">
<metadata>
Created by potrace 1.11, written by Peter Selinger 2001-2013
</metadata>
<g transform="translate(0.000000,260.000000) scale(0.100000,-0.100000)"
fill="#000000" stroke="none">
<path d="M370 1680 l0 -620 130 0 130 0 0 179 0 180 66 68 c60 62 67 66 77 50
128 -201 310 -468 323 -475 16 -9 8 -37 -93 -308 -67 -182 -106 -302 -100
-306 5 -3 69 -7 141 -7 l131 -1 43 135 43 135 241 -2 240 -3 44 -124 c24 -69
49 -128 56 -133 21 -13 268 -10 268 3 0 11 -132 374 -151 414 -5 11 -35 92
-67 180 -33 88 -106 285 -163 438 l-104 278 -124 -3 -125 -3 -28 -75 c-97
-259 -133 -348 -140 -344 -10 6 -97 134 -206 301 l-73 113 215 267 c126 158
210 271 204 275 -6 3 -75 6 -152 7 l-141 0 -74 -97 c-41 -53 -136 -177 -210
-276 l-136 -179 -3 277 -2 276 -130 0 -130 0 0 -620z m1176 -405 c69 -188 114
-328 108 -336 -3 -5 -75 -9 -161 -9 -142 0 -155 1 -149 17 4 9 39 113 78 231
39 117 74 210 79 205 4 -4 25 -53 45 -108z"/>
</g>
</svg>
